{
	"asset":{
		"generator":"Khronos glTF Blender I/O v3.6.27",
		"version":"2.0"
	},
	"scene":0,
	"scenes":[
		{
			"name":"Scene",
			"nodes":[
				0
			]
		}
	],
	"nodes":[
		{
			"mesh":0,
			"name":"Chair"
		}
	],
	"materials":[
		{
			"doubleSided":true,
			"name":"\uc2dd\ud0c1\uc758\uc790.001",
			"normalTexture":{
				"index":0
			},
			"pbrMetallicRoughness":{
				"baseColorTexture":{
					"index":1
				},
				"metallicRoughnessTexture":{
					"index":2
				}
			}
		}
	],
	"meshes":[
		{
			"name":"model.001",
			"primitives":[
				{
					"attributes":{
						"POSITION":0,
						"NORMAL":1,
						"TEXCOORD_0":2
					},
					"indices":3,
					"material":0
				}
			]
		}
	],
	"textures":[
		{
			"sampler":0,
			"source":0
		},
		{
			"sampler":0,
			"source":1
		},
		{
			"sampler":0,
			"source":2
		}
	],
	"images":[
		{
			"mimeType":"image/png",
			"name":"chair_Normal_DirectX",
			"uri":"chair/chair_Normal_DirectX.png"
		},
		{
			"mimeType":"image/png",
			"name":"chair_Base_color",
			"uri":"chair/chair_Base_color.png"
		},
		{
			"mimeType":"image/png",
			"name":"chair_Metallic-chair_Roughness",
			"uri":"chair/chair_Metallic-chair_Roughness.png"
		}
	],
	"accessors":[
		{
			"bufferView":0,
			"componentType":5126,
			"count":1171,
			"max":[
				0.30664879083633423,
				0.5051315426826477,
				0.29881229996681213
			],
			"min":[
				-0.30664879083633423,
				-0.5051314830780029,
				-0.29881229996681213
			],
			"type":"VEC3"
		},
		{
			"bufferView":1,
			"componentType":5126,
			"count":1171,
			"type":"VEC3"
		},
		{
			"bufferView":2,
			"componentType":5126,
			"count":1171,
			"type":"VEC2"
		},
		{
			"bufferView":3,
			"componentType":5123,
			"count":4152,
			"type":"SCALAR"
		}
	],
	"bufferViews":[
		{
			"buffer":0,
			"byteLength":14052,
			"byteOffset":0,
			"target":34962
		},
		{
			"buffer":0,
			"byteLength":14052,
			"byteOffset":14052,
			"target":34962
		},
		{
			"buffer":0,
			"byteLength":9368,
			"byteOffset":28104,
			"target":34962
		},
		{
			"buffer":0,
			"byteLength":8304,
			"byteOffset":37472,
			"target":34963
		}
	],
	"samplers":[
		{
			"magFilter":9729,
			"minFilter":9987
		}
	],
	"buffers":[
		{
			"byteLength":45776,
			"uri":"chair.bin"
		}
	]
}
